<svg width="483" height="473" viewBox="0 0 483 473" fill="none" xmlns="http://www.w3.org/2000/svg">
<rect y="128.353" width="40" height="40" rx="10" transform="rotate(-15 0 128.353)" fill="#4535AF"/>
<g clip-path="url(#clip0_0_24)">
<rect x="73" y="13" width="410" height="402" rx="10" fill="#52BD94"/>
<path d="M123 14.5L100 135.5L176.5 69L201 162L282 69L301 162L349.5 110.5L364.5 236L445 110.5L450.5 242.5L482.5 276.5" stroke="#30946D" stroke-width="5"/>
<path d="M57 219.303C82.8265 219.56 137.241 227.608 148.288 257.751C159.334 287.895 271.027 236.477 325.493 207L337 486.901C292.507 505.1 204.748 548.726 209.658 577.638C215.795 613.78 193.548 622.238 154.425 622.238C115.301 622.238 121.438 634.541 102.26 643" stroke="#30946D" stroke-width="5"/>
<rect x="92" y="168" width="262" height="78" rx="10" fill="white"/>
<path d="M111.057 194V185.273H116.324V186.21H112.114V189.159H116.051V190.097H112.114V193.062H116.392V194H111.057ZM119.098 190.062V194H118.092V187.455H119.064V188.477H119.149C119.303 188.145 119.536 187.878 119.848 187.676C120.161 187.472 120.564 187.369 121.058 187.369C121.501 187.369 121.889 187.46 122.222 187.642C122.554 187.821 122.813 188.094 122.997 188.46C123.182 188.824 123.274 189.284 123.274 189.841V194H122.268V189.909C122.268 189.395 122.135 188.994 121.868 188.707C121.601 188.418 121.234 188.273 120.768 188.273C120.447 188.273 120.161 188.342 119.908 188.482C119.658 188.621 119.46 188.824 119.315 189.091C119.17 189.358 119.098 189.682 119.098 190.062ZM127.958 187.455V188.307H124.566V187.455H127.958ZM125.555 185.886H126.561V192.125C126.561 192.409 126.602 192.622 126.684 192.764C126.77 192.903 126.877 192.997 127.008 193.045C127.142 193.091 127.282 193.114 127.43 193.114C127.541 193.114 127.632 193.108 127.703 193.097C127.774 193.082 127.831 193.071 127.873 193.062L128.078 193.966C128.01 193.991 127.914 194.017 127.792 194.043C127.67 194.071 127.515 194.085 127.328 194.085C127.044 194.085 126.765 194.024 126.493 193.902C126.223 193.78 125.998 193.594 125.819 193.344C125.643 193.094 125.555 192.778 125.555 192.398V185.886ZM132.145 194.136C131.515 194.136 130.971 193.997 130.513 193.719C130.059 193.438 129.708 193.045 129.461 192.543C129.216 192.037 129.094 191.449 129.094 190.778C129.094 190.108 129.216 189.517 129.461 189.006C129.708 188.491 130.051 188.091 130.492 187.804C130.935 187.514 131.452 187.369 132.043 187.369C132.384 187.369 132.721 187.426 133.053 187.54C133.385 187.653 133.688 187.838 133.961 188.094C134.233 188.347 134.451 188.682 134.613 189.099C134.775 189.517 134.855 190.031 134.855 190.642V191.068H129.81V190.199H133.833C133.833 189.83 133.759 189.5 133.611 189.21C133.466 188.92 133.259 188.692 132.989 188.524C132.722 188.357 132.407 188.273 132.043 188.273C131.642 188.273 131.296 188.372 131.003 188.571C130.713 188.767 130.49 189.023 130.334 189.338C130.178 189.653 130.1 189.991 130.1 190.352V190.932C130.1 191.426 130.185 191.845 130.355 192.189C130.529 192.53 130.769 192.79 131.076 192.969C131.382 193.145 131.739 193.233 132.145 193.233C132.409 193.233 132.648 193.196 132.861 193.122C133.077 193.045 133.263 192.932 133.419 192.781C133.576 192.628 133.696 192.437 133.782 192.21L134.753 192.483C134.651 192.812 134.479 193.102 134.238 193.352C133.996 193.599 133.698 193.793 133.343 193.932C132.988 194.068 132.588 194.136 132.145 194.136ZM136.385 194V187.455H137.357V188.443H137.425C137.544 188.119 137.76 187.857 138.073 187.655C138.385 187.453 138.738 187.352 139.13 187.352C139.203 187.352 139.296 187.354 139.407 187.357C139.517 187.359 139.601 187.364 139.658 187.369V188.392C139.624 188.384 139.546 188.371 139.424 188.354C139.304 188.334 139.178 188.324 139.044 188.324C138.726 188.324 138.442 188.391 138.192 188.524C137.945 188.655 137.749 188.837 137.604 189.07C137.462 189.3 137.391 189.562 137.391 189.858V194H136.385ZM146.151 194.153C145.737 194.153 145.36 194.075 145.022 193.919C144.684 193.76 144.415 193.531 144.217 193.233C144.018 192.932 143.918 192.568 143.918 192.142C143.918 191.767 143.992 191.463 144.14 191.23C144.288 190.994 144.485 190.81 144.732 190.676C144.979 190.543 145.252 190.443 145.55 190.378C145.852 190.31 146.154 190.256 146.458 190.216C146.856 190.165 147.178 190.126 147.425 190.101C147.675 190.072 147.857 190.026 147.971 189.96C148.087 189.895 148.146 189.781 148.146 189.619V189.585C148.146 189.165 148.031 188.838 147.8 188.605C147.573 188.372 147.228 188.256 146.765 188.256C146.285 188.256 145.908 188.361 145.636 188.571C145.363 188.781 145.171 189.006 145.06 189.244L144.106 188.903C144.276 188.506 144.504 188.196 144.788 187.974C145.075 187.75 145.387 187.594 145.725 187.506C146.066 187.415 146.401 187.369 146.731 187.369C146.941 187.369 147.183 187.395 147.455 187.446C147.731 187.494 147.996 187.595 148.252 187.749C148.511 187.902 148.725 188.134 148.896 188.443C149.066 188.753 149.151 189.168 149.151 189.688V194H148.146V193.114H148.094C148.026 193.256 147.913 193.408 147.754 193.57C147.594 193.732 147.383 193.869 147.119 193.983C146.854 194.097 146.532 194.153 146.151 194.153ZM146.305 193.25C146.702 193.25 147.038 193.172 147.31 193.016C147.586 192.859 147.793 192.658 147.933 192.411C148.075 192.163 148.146 191.903 148.146 191.631V190.71C148.103 190.761 148.009 190.808 147.864 190.851C147.722 190.891 147.558 190.926 147.37 190.957C147.185 190.986 147.005 191.011 146.829 191.034C146.656 191.054 146.515 191.071 146.407 191.085C146.146 191.119 145.901 191.175 145.674 191.251C145.45 191.325 145.268 191.437 145.129 191.588C144.992 191.736 144.924 191.937 144.924 192.193C144.924 192.543 145.053 192.807 145.312 192.986C145.573 193.162 145.904 193.25 146.305 193.25ZM150.987 194V187.455H151.958V188.477H152.044C152.18 188.128 152.4 187.857 152.704 187.663C153.008 187.467 153.373 187.369 153.799 187.369C154.231 187.369 154.591 187.467 154.877 187.663C155.167 187.857 155.393 188.128 155.555 188.477H155.623C155.791 188.139 156.042 187.871 156.377 187.672C156.713 187.47 157.115 187.369 157.583 187.369C158.169 187.369 158.647 187.553 159.02 187.919C159.392 188.283 159.578 188.849 159.578 189.619V194H158.572V189.619C158.572 189.136 158.44 188.791 158.176 188.584C157.912 188.376 157.6 188.273 157.243 188.273C156.782 188.273 156.426 188.412 156.173 188.69C155.92 188.966 155.794 189.315 155.794 189.739V194H154.771V189.517C154.771 189.145 154.65 188.845 154.409 188.618C154.167 188.388 153.856 188.273 153.475 188.273C153.214 188.273 152.97 188.342 152.743 188.482C152.518 188.621 152.336 188.814 152.197 189.061C152.061 189.305 151.993 189.588 151.993 189.909V194H150.987ZM164.076 194.136C163.485 194.136 162.966 193.996 162.52 193.714C162.077 193.433 161.73 193.04 161.48 192.534C161.233 192.028 161.11 191.437 161.11 190.761C161.11 190.08 161.233 189.484 161.48 188.976C161.73 188.467 162.077 188.072 162.52 187.791C162.966 187.51 163.485 187.369 164.076 187.369C164.667 187.369 165.184 187.51 165.627 187.791C166.073 188.072 166.419 188.467 166.667 188.976C166.917 189.484 167.042 190.08 167.042 190.761C167.042 191.437 166.917 192.028 166.667 192.534C166.419 193.04 166.073 193.433 165.627 193.714C165.184 193.996 164.667 194.136 164.076 194.136ZM164.076 193.233C164.525 193.233 164.894 193.118 165.184 192.888C165.473 192.658 165.688 192.355 165.827 191.98C165.966 191.605 166.036 191.199 166.036 190.761C166.036 190.324 165.966 189.916 165.827 189.538C165.688 189.161 165.473 188.855 165.184 188.622C164.894 188.389 164.525 188.273 164.076 188.273C163.627 188.273 163.257 188.389 162.968 188.622C162.678 188.855 162.463 189.161 162.324 189.538C162.185 189.916 162.115 190.324 162.115 190.761C162.115 191.199 162.185 191.605 162.324 191.98C162.463 192.355 162.678 192.658 162.968 192.888C163.257 193.118 163.627 193.233 164.076 193.233ZM172.702 191.324V187.455H173.707V194H172.702V192.892H172.634C172.48 193.224 172.241 193.507 171.918 193.74C171.594 193.97 171.185 194.085 170.69 194.085C170.281 194.085 169.918 193.996 169.599 193.817C169.281 193.635 169.031 193.362 168.849 192.999C168.668 192.632 168.577 192.17 168.577 191.614V187.455H169.582V191.545C169.582 192.023 169.716 192.403 169.983 192.688C170.253 192.972 170.597 193.114 171.014 193.114C171.264 193.114 171.518 193.05 171.777 192.922C172.038 192.794 172.257 192.598 172.433 192.334C172.612 192.07 172.702 191.733 172.702 191.324ZM176.555 190.062V194H175.549V187.455H176.521V188.477H176.606C176.76 188.145 176.993 187.878 177.305 187.676C177.618 187.472 178.021 187.369 178.515 187.369C178.958 187.369 179.346 187.46 179.679 187.642C180.011 187.821 180.27 188.094 180.454 188.46C180.639 188.824 180.731 189.284 180.731 189.841V194H179.725V189.909C179.725 189.395 179.592 188.994 179.325 188.707C179.058 188.418 178.691 188.273 178.225 188.273C177.904 188.273 177.618 188.342 177.365 188.482C177.115 188.621 176.917 188.824 176.772 189.091C176.627 189.358 176.555 189.682 176.555 190.062ZM185.415 187.455V188.307H182.023V187.455H185.415ZM183.012 185.886H184.018V192.125C184.018 192.409 184.059 192.622 184.141 192.764C184.227 192.903 184.335 192.997 184.465 193.045C184.599 193.091 184.739 193.114 184.887 193.114C184.998 193.114 185.089 193.108 185.16 193.097C185.231 193.082 185.288 193.071 185.33 193.062L185.535 193.966C185.467 193.991 185.371 194.017 185.249 194.043C185.127 194.071 184.972 194.085 184.785 194.085C184.501 194.085 184.222 194.024 183.95 193.902C183.68 193.78 183.455 193.594 183.276 193.344C183.1 193.094 183.012 192.778 183.012 192.398V185.886Z" fill="#A9A7B6"/>
<path d="M114.71 224.455V209.909H115.642V224.455H114.71ZM117.625 214.42C117.564 213.883 117.314 213.466 116.875 213.17C116.436 212.871 115.883 212.722 115.216 212.722C114.739 212.722 114.326 212.797 113.977 212.949C113.629 213.097 113.358 213.301 113.165 213.562C112.975 213.82 112.881 214.114 112.881 214.443C112.881 214.72 112.945 214.958 113.074 215.159C113.206 215.36 113.379 215.528 113.591 215.665C113.807 215.797 114.038 215.909 114.284 216C114.53 216.087 114.767 216.159 114.994 216.216L116.131 216.511C116.502 216.602 116.883 216.725 117.273 216.881C117.663 217.036 118.025 217.241 118.358 217.494C118.691 217.748 118.96 218.062 119.165 218.438C119.373 218.812 119.477 219.261 119.477 219.784C119.477 220.443 119.307 221.028 118.966 221.54C118.629 222.051 118.138 222.455 117.494 222.75C116.854 223.045 116.08 223.193 115.17 223.193C114.299 223.193 113.545 223.055 112.909 222.778C112.273 222.502 111.775 222.11 111.415 221.602C111.055 221.091 110.856 220.485 110.818 219.784H112.58C112.614 220.205 112.75 220.555 112.989 220.835C113.231 221.112 113.54 221.318 113.915 221.455C114.294 221.587 114.708 221.653 115.159 221.653C115.655 221.653 116.097 221.576 116.483 221.42C116.873 221.261 117.18 221.042 117.403 220.761C117.627 220.477 117.739 220.146 117.739 219.767C117.739 219.422 117.64 219.14 117.443 218.92C117.25 218.701 116.987 218.519 116.653 218.375C116.324 218.231 115.951 218.104 115.534 217.994L114.159 217.619C113.227 217.366 112.489 216.992 111.943 216.5C111.402 216.008 111.131 215.356 111.131 214.545C111.131 213.875 111.313 213.29 111.676 212.79C112.04 212.29 112.532 211.902 113.153 211.625C113.775 211.345 114.475 211.205 115.256 211.205C116.044 211.205 116.739 211.343 117.341 211.619C117.947 211.896 118.424 212.277 118.773 212.761C119.121 213.242 119.303 213.795 119.318 214.42H117.625ZM121.172 220.727V219.307L126.2 211.364H127.32V213.455H126.609L123.013 219.148V219.239H129.905V220.727H121.172ZM126.689 223V220.295L126.7 219.648V211.364H128.365V223H126.689ZM135.726 223.159C135.014 223.159 134.374 223.023 133.805 222.75C133.241 222.473 132.79 222.095 132.453 221.614C132.116 221.133 131.936 220.583 131.913 219.966H133.618C133.66 220.466 133.881 220.877 134.283 221.199C134.684 221.521 135.165 221.682 135.726 221.682C136.173 221.682 136.569 221.58 136.913 221.375C137.262 221.167 137.535 220.881 137.732 220.517C137.932 220.153 138.033 219.739 138.033 219.273C138.033 218.799 137.93 218.377 137.726 218.006C137.521 217.634 137.239 217.343 136.879 217.131C136.523 216.919 136.114 216.811 135.652 216.807C135.3 216.807 134.946 216.867 134.589 216.989C134.233 217.11 133.946 217.269 133.726 217.466L132.118 217.227L132.771 211.364H139.169V212.869H134.232L133.862 216.125H133.93C134.158 215.905 134.459 215.722 134.834 215.574C135.213 215.426 135.618 215.352 136.05 215.352C136.758 215.352 137.389 215.521 137.942 215.858C138.499 216.195 138.936 216.655 139.254 217.239C139.576 217.818 139.735 218.485 139.732 219.239C139.735 219.992 139.565 220.665 139.22 221.256C138.879 221.847 138.406 222.312 137.8 222.653C137.197 222.991 136.506 223.159 135.726 223.159ZM145.858 223.193C144.96 223.189 144.193 222.953 143.557 222.483C142.92 222.013 142.434 221.33 142.097 220.432C141.759 219.534 141.591 218.453 141.591 217.188C141.591 215.926 141.759 214.848 142.097 213.955C142.438 213.061 142.926 212.379 143.562 211.909C144.203 211.439 144.968 211.205 145.858 211.205C146.748 211.205 147.511 211.441 148.148 211.915C148.784 212.384 149.271 213.066 149.608 213.96C149.949 214.85 150.119 215.926 150.119 217.188C150.119 218.456 149.951 219.54 149.614 220.438C149.277 221.331 148.79 222.015 148.153 222.489C147.517 222.958 146.752 223.193 145.858 223.193ZM145.858 221.676C146.646 221.676 147.261 221.292 147.705 220.523C148.152 219.754 148.375 218.642 148.375 217.188C148.375 216.222 148.273 215.405 148.068 214.739C147.867 214.068 147.578 213.561 147.199 213.216C146.824 212.867 146.377 212.693 145.858 212.693C145.074 212.693 144.458 213.08 144.011 213.852C143.564 214.625 143.339 215.737 143.335 217.188C143.335 218.157 143.436 218.977 143.636 219.648C143.841 220.314 144.131 220.82 144.506 221.165C144.881 221.506 145.331 221.676 145.858 221.676ZM152.855 223.108C152.545 223.108 152.277 222.998 152.054 222.778C151.83 222.555 151.719 222.286 151.719 221.972C151.719 221.661 151.83 221.396 152.054 221.176C152.277 220.953 152.545 220.841 152.855 220.841C153.166 220.841 153.433 220.953 153.656 221.176C153.88 221.396 153.991 221.661 153.991 221.972C153.991 222.18 153.938 222.371 153.832 222.545C153.73 222.716 153.594 222.852 153.423 222.955C153.253 223.057 153.063 223.108 152.855 223.108ZM157.386 223.108C157.076 223.108 156.809 222.998 156.585 222.778C156.362 222.555 156.25 222.286 156.25 221.972C156.25 221.661 156.362 221.396 156.585 221.176C156.809 220.953 157.076 220.841 157.386 220.841C157.697 220.841 157.964 220.953 158.188 221.176C158.411 221.396 158.523 221.661 158.523 221.972C158.523 222.18 158.47 222.371 158.364 222.545C158.261 222.716 158.125 222.852 157.955 222.955C157.784 223.057 157.595 223.108 157.386 223.108ZM164.405 223.193C163.507 223.189 162.74 222.953 162.104 222.483C161.467 222.013 160.981 221.33 160.643 220.432C160.306 219.534 160.138 218.453 160.138 217.188C160.138 215.926 160.306 214.848 160.643 213.955C160.984 213.061 161.473 212.379 162.109 211.909C162.75 211.439 163.515 211.205 164.405 211.205C165.295 211.205 166.058 211.441 166.695 211.915C167.331 212.384 167.818 213.066 168.155 213.96C168.496 214.85 168.666 215.926 168.666 217.188C168.666 218.456 168.498 219.54 168.161 220.438C167.823 221.331 167.337 222.015 166.7 222.489C166.064 222.958 165.299 223.193 164.405 223.193ZM164.405 221.676C165.193 221.676 165.808 221.292 166.251 220.523C166.698 219.754 166.922 218.642 166.922 217.188C166.922 216.222 166.82 215.405 166.615 214.739C166.414 214.068 166.125 213.561 165.746 213.216C165.371 212.867 164.924 212.693 164.405 212.693C163.621 212.693 163.005 213.08 162.558 213.852C162.111 214.625 161.886 215.737 161.882 217.188C161.882 218.157 161.982 218.977 162.183 219.648C162.388 220.314 162.678 220.82 163.053 221.165C163.428 221.506 163.878 221.676 164.405 221.676ZM174.733 223.193C173.835 223.189 173.068 222.953 172.432 222.483C171.795 222.013 171.309 221.33 170.972 220.432C170.634 219.534 170.466 218.453 170.466 217.188C170.466 215.926 170.634 214.848 170.972 213.955C171.313 213.061 171.801 212.379 172.438 211.909C173.078 211.439 173.843 211.205 174.733 211.205C175.623 211.205 176.386 211.441 177.023 211.915C177.659 212.384 178.146 213.066 178.483 213.96C178.824 214.85 178.994 215.926 178.994 217.188C178.994 218.456 178.826 219.54 178.489 220.438C178.152 221.331 177.665 222.015 177.028 222.489C176.392 222.958 175.627 223.193 174.733 223.193ZM174.733 221.676C175.521 221.676 176.136 221.292 176.58 220.523C177.027 219.754 177.25 218.642 177.25 217.188C177.25 216.222 177.148 215.405 176.943 214.739C176.742 214.068 176.453 213.561 176.074 213.216C175.699 212.867 175.252 212.693 174.733 212.693C173.949 212.693 173.333 213.08 172.886 213.852C172.439 214.625 172.214 215.737 172.21 217.188C172.21 218.157 172.311 218.977 172.511 219.648C172.716 220.314 173.006 220.82 173.381 221.165C173.756 221.506 174.206 221.676 174.733 221.676Z" fill="black"/>
<rect x="273" y="191" width="64" height="28" rx="14" fill="#52BD94"/>
<path d="M295.195 202.029C295.146 201.592 294.943 201.254 294.586 201.013C294.229 200.77 293.78 200.649 293.238 200.649C292.85 200.649 292.515 200.71 292.232 200.833C291.948 200.953 291.728 201.12 291.571 201.332C291.417 201.541 291.341 201.78 291.341 202.048C291.341 202.272 291.393 202.466 291.498 202.629C291.605 202.792 291.745 202.929 291.918 203.04C292.093 203.148 292.281 203.239 292.481 203.312C292.681 203.383 292.873 203.442 293.058 203.488L293.981 203.728C294.283 203.802 294.592 203.902 294.909 204.028C295.226 204.154 295.52 204.32 295.791 204.527C296.062 204.733 296.28 204.988 296.446 205.293C296.616 205.598 296.7 205.962 296.7 206.387C296.7 206.923 296.562 207.398 296.285 207.814C296.011 208.229 295.612 208.557 295.089 208.797C294.569 209.037 293.94 209.157 293.201 209.157C292.493 209.157 291.881 209.045 291.364 208.82C290.847 208.595 290.442 208.277 290.15 207.864C289.857 207.449 289.696 206.956 289.665 206.387H291.096C291.124 206.729 291.234 207.013 291.428 207.241C291.625 207.466 291.876 207.634 292.181 207.744C292.489 207.852 292.826 207.906 293.192 207.906C293.595 207.906 293.953 207.843 294.267 207.717C294.584 207.587 294.834 207.409 295.015 207.181C295.197 206.95 295.288 206.681 295.288 206.373C295.288 206.093 295.208 205.864 295.048 205.685C294.891 205.507 294.677 205.359 294.406 205.242C294.138 205.125 293.835 205.022 293.496 204.933L292.379 204.628C291.622 204.422 291.022 204.119 290.579 203.719C290.139 203.319 289.919 202.789 289.919 202.131C289.919 201.586 290.066 201.11 290.362 200.704C290.657 200.298 291.057 199.982 291.562 199.758C292.067 199.53 292.636 199.416 293.27 199.416C293.91 199.416 294.475 199.529 294.964 199.753C295.457 199.978 295.845 200.287 296.128 200.681C296.411 201.072 296.559 201.521 296.571 202.029H295.195ZM301.35 209.143C300.652 209.143 300.05 208.994 299.545 208.695C299.044 208.394 298.656 207.971 298.382 207.426C298.111 206.878 297.976 206.236 297.976 205.501C297.976 204.774 298.111 204.134 298.382 203.58C298.656 203.026 299.037 202.594 299.527 202.283C300.019 201.972 300.595 201.817 301.253 201.817C301.653 201.817 302.041 201.883 302.417 202.015C302.792 202.148 303.129 202.355 303.428 202.638C303.726 202.922 303.962 203.289 304.134 203.742C304.306 204.191 304.392 204.737 304.392 205.381V205.87H298.756V204.836H303.04C303.04 204.473 302.966 204.151 302.818 203.871C302.671 203.588 302.463 203.365 302.195 203.202C301.93 203.039 301.62 202.957 301.263 202.957C300.875 202.957 300.536 203.052 300.247 203.243C299.961 203.431 299.739 203.677 299.582 203.982C299.428 204.283 299.351 204.611 299.351 204.965V205.773C299.351 206.247 299.434 206.65 299.601 206.983C299.77 207.315 300.005 207.569 300.307 207.744C300.609 207.917 300.961 208.003 301.364 208.003C301.626 208.003 301.864 207.966 302.08 207.892C302.295 207.815 302.481 207.701 302.638 207.55C302.795 207.4 302.915 207.213 302.998 206.992L304.305 207.227C304.2 207.612 304.012 207.949 303.742 208.238C303.474 208.525 303.137 208.748 302.731 208.908C302.327 209.065 301.867 209.143 301.35 209.143ZM307.304 204.79V209H305.924V201.909H307.249V203.063H307.337C307.5 202.688 307.755 202.386 308.103 202.158C308.454 201.931 308.895 201.817 309.428 201.817C309.911 201.817 310.334 201.918 310.697 202.121C311.061 202.321 311.342 202.62 311.542 203.017C311.742 203.414 311.842 203.905 311.842 204.49V209H310.462V204.656C310.462 204.142 310.328 203.74 310.06 203.451C309.793 203.159 309.425 203.012 308.957 203.012C308.637 203.012 308.352 203.082 308.103 203.22C307.857 203.359 307.661 203.562 307.517 203.83C307.375 204.094 307.304 204.414 307.304 204.79ZM316.348 209.138C315.776 209.138 315.265 208.992 314.815 208.7C314.369 208.404 314.018 207.984 313.763 207.44C313.51 206.892 313.384 206.235 313.384 205.468C313.384 204.702 313.512 204.047 313.767 203.502C314.026 202.957 314.38 202.54 314.829 202.251C315.279 201.961 315.788 201.817 316.357 201.817C316.797 201.817 317.151 201.891 317.419 202.038C317.69 202.183 317.899 202.352 318.047 202.546C318.198 202.74 318.315 202.911 318.398 203.059H318.481V199.545H319.861V209H318.513V207.897H318.398C318.315 208.047 318.195 208.22 318.038 208.414C317.884 208.608 317.671 208.777 317.401 208.922C317.13 209.066 316.779 209.138 316.348 209.138ZM316.653 207.961C317.05 207.961 317.385 207.857 317.659 207.647C317.936 207.435 318.145 207.141 318.287 206.766C318.432 206.39 318.504 205.953 318.504 205.455C318.504 204.962 318.433 204.531 318.292 204.162C318.15 203.793 317.942 203.505 317.668 203.299C317.394 203.092 317.056 202.989 316.653 202.989C316.237 202.989 315.891 203.097 315.614 203.312C315.337 203.528 315.128 203.822 314.986 204.194C314.848 204.567 314.778 204.987 314.778 205.455C314.778 205.929 314.849 206.355 314.991 206.733C315.132 207.112 315.342 207.412 315.619 207.634C315.899 207.852 316.243 207.961 316.653 207.961Z" fill="white"/>
</g>
<rect x="402.353" y="424" width="40" height="40" rx="10" transform="rotate(15 402.353 424)" fill="#FFAA94"/>
<g clip-path="url(#clip1_0_24)">
<path d="M423.092 452.851C422.978 453.278 422.699 453.642 422.316 453.863C421.933 454.084 421.478 454.144 421.051 454.029L411.392 451.441L407.309 453.798L410.76 440.919C410.875 440.492 411.154 440.128 411.537 439.907C411.92 439.686 412.374 439.626 412.801 439.741L424.071 442.76C424.498 442.875 424.862 443.154 425.083 443.537C425.304 443.92 425.364 444.375 425.249 444.801L423.092 452.851Z" stroke="white" stroke-width="1.66667" stroke-linecap="round" stroke-linejoin="round"/>
</g>
<rect x="401.572" width="48.5725" height="48.5725" rx="10" transform="rotate(15 401.572 0)" fill="#FBC75E"/>
<g clip-path="url(#clip2_0_24)">
<path d="M419.863 26.78C423.864 27.8521 427.397 27.64 427.754 26.3064C428.112 24.9727 425.158 23.0225 421.157 21.9504C417.156 20.8784 413.623 21.0904 413.265 22.4241C412.908 23.7578 415.862 25.708 419.863 26.78Z" stroke="#F8F8FA" stroke-width="1.66667" stroke-linecap="round" stroke-linejoin="round"/>
<path d="M426.244 31.9411C425.886 33.2773 422.377 33.4932 418.352 32.4148C414.328 31.3364 411.397 29.395 411.755 28.0588" stroke="#F8F8FA" stroke-width="1.66667" stroke-linecap="round" stroke-linejoin="round"/>
<path d="M413.265 22.4243L410.245 33.6935C409.887 35.0296 412.818 36.971 416.843 38.0494C420.867 39.1278 424.376 38.9119 424.734 37.5757L427.754 26.3066" stroke="#F8F8FA" stroke-width="1.66667" stroke-linecap="round" stroke-linejoin="round"/>
</g>
<rect x="92" y="295" width="138" height="70" rx="10" fill="white"/>
<path d="M109.71 348.455V333.909H110.642V348.455H109.71ZM112.625 338.42C112.564 337.883 112.314 337.466 111.875 337.17C111.436 336.871 110.883 336.722 110.216 336.722C109.739 336.722 109.326 336.797 108.977 336.949C108.629 337.097 108.358 337.301 108.165 337.562C107.975 337.82 107.881 338.114 107.881 338.443C107.881 338.72 107.945 338.958 108.074 339.159C108.206 339.36 108.379 339.528 108.591 339.665C108.807 339.797 109.038 339.909 109.284 340C109.53 340.087 109.767 340.159 109.994 340.216L111.131 340.511C111.502 340.602 111.883 340.725 112.273 340.881C112.663 341.036 113.025 341.241 113.358 341.494C113.691 341.748 113.96 342.062 114.165 342.438C114.373 342.812 114.477 343.261 114.477 343.784C114.477 344.443 114.307 345.028 113.966 345.54C113.629 346.051 113.138 346.455 112.494 346.75C111.854 347.045 111.08 347.193 110.17 347.193C109.299 347.193 108.545 347.055 107.909 346.778C107.273 346.502 106.775 346.11 106.415 345.602C106.055 345.091 105.856 344.485 105.818 343.784H107.58C107.614 344.205 107.75 344.555 107.989 344.835C108.231 345.112 108.54 345.318 108.915 345.455C109.294 345.587 109.708 345.653 110.159 345.653C110.655 345.653 111.097 345.576 111.483 345.42C111.873 345.261 112.18 345.042 112.403 344.761C112.627 344.477 112.739 344.146 112.739 343.767C112.739 343.422 112.64 343.14 112.443 342.92C112.25 342.701 111.987 342.519 111.653 342.375C111.324 342.231 110.951 342.104 110.534 341.994L109.159 341.619C108.227 341.366 107.489 340.992 106.943 340.5C106.402 340.008 106.131 339.356 106.131 338.545C106.131 337.875 106.313 337.29 106.676 336.79C107.04 336.29 107.532 335.902 108.153 335.625C108.775 335.345 109.475 335.205 110.256 335.205C111.044 335.205 111.739 335.343 112.341 335.619C112.947 335.896 113.424 336.277 113.773 336.761C114.121 337.242 114.303 337.795 114.318 338.42H112.625ZM116.416 347V345.727L120.354 341.648C120.774 341.205 121.121 340.816 121.393 340.483C121.67 340.146 121.876 339.826 122.013 339.523C122.149 339.22 122.217 338.898 122.217 338.557C122.217 338.17 122.126 337.837 121.945 337.557C121.763 337.273 121.515 337.055 121.2 336.903C120.886 336.748 120.532 336.67 120.138 336.67C119.721 336.67 119.357 336.756 119.047 336.926C118.736 337.097 118.498 337.337 118.331 337.648C118.164 337.958 118.081 338.322 118.081 338.739H116.405C116.405 338.03 116.568 337.411 116.893 336.881C117.219 336.35 117.666 335.939 118.234 335.648C118.803 335.352 119.448 335.205 120.172 335.205C120.903 335.205 121.547 335.35 122.104 335.642C122.664 335.93 123.102 336.324 123.416 336.824C123.731 337.32 123.888 337.881 123.888 338.506C123.888 338.938 123.806 339.36 123.643 339.773C123.484 340.186 123.206 340.646 122.808 341.153C122.411 341.657 121.857 342.269 121.149 342.989L118.837 345.409V345.494H124.075V347H116.416ZM125.734 344.727V343.307L130.763 335.364H131.882V337.455H131.172L127.575 343.148V343.239H134.467V344.727H125.734ZM131.251 347V344.295L131.263 343.648V335.364H132.928V347H131.251ZM140.288 347.159C139.576 347.159 138.936 347.023 138.368 346.75C137.804 346.473 137.353 346.095 137.016 345.614C136.679 345.133 136.499 344.583 136.476 343.966H138.18C138.222 344.466 138.444 344.877 138.845 345.199C139.247 345.521 139.728 345.682 140.288 345.682C140.735 345.682 141.131 345.58 141.476 345.375C141.824 345.167 142.097 344.881 142.294 344.517C142.495 344.153 142.595 343.739 142.595 343.273C142.595 342.799 142.493 342.377 142.288 342.006C142.084 341.634 141.802 341.343 141.442 341.131C141.086 340.919 140.677 340.811 140.214 340.807C139.862 340.807 139.508 340.867 139.152 340.989C138.796 341.11 138.508 341.269 138.288 341.466L136.68 341.227L137.334 335.364H143.732V336.869H138.794L138.425 340.125H138.493C138.72 339.905 139.021 339.722 139.396 339.574C139.775 339.426 140.18 339.352 140.612 339.352C141.321 339.352 141.951 339.521 142.504 339.858C143.061 340.195 143.499 340.655 143.817 341.239C144.139 341.818 144.298 342.485 144.294 343.239C144.298 343.992 144.127 344.665 143.783 345.256C143.442 345.847 142.968 346.312 142.362 346.653C141.76 346.991 141.069 347.159 140.288 347.159ZM147.089 347.108C146.779 347.108 146.512 346.998 146.288 346.778C146.065 346.555 145.953 346.286 145.953 345.972C145.953 345.661 146.065 345.396 146.288 345.176C146.512 344.953 146.779 344.841 147.089 344.841C147.4 344.841 147.667 344.953 147.891 345.176C148.114 345.396 148.226 345.661 148.226 345.972C148.226 346.18 148.173 346.371 148.067 346.545C147.964 346.716 147.828 346.852 147.658 346.955C147.487 347.057 147.298 347.108 147.089 347.108ZM154.108 347.193C153.21 347.189 152.443 346.953 151.807 346.483C151.17 346.013 150.684 345.33 150.347 344.432C150.009 343.534 149.841 342.453 149.841 341.188C149.841 339.926 150.009 338.848 150.347 337.955C150.688 337.061 151.176 336.379 151.812 335.909C152.453 335.439 153.218 335.205 154.108 335.205C154.998 335.205 155.761 335.441 156.398 335.915C157.034 336.384 157.521 337.066 157.858 337.96C158.199 338.85 158.369 339.926 158.369 341.188C158.369 342.456 158.201 343.54 157.864 344.438C157.527 345.331 157.04 346.015 156.403 346.489C155.767 346.958 155.002 347.193 154.108 347.193ZM154.108 345.676C154.896 345.676 155.511 345.292 155.955 344.523C156.402 343.754 156.625 342.642 156.625 341.188C156.625 340.222 156.523 339.405 156.318 338.739C156.117 338.068 155.828 337.561 155.449 337.216C155.074 336.867 154.627 336.693 154.108 336.693C153.324 336.693 152.708 337.08 152.261 337.852C151.814 338.625 151.589 339.737 151.585 341.188C151.585 342.157 151.686 342.977 151.886 343.648C152.091 344.314 152.381 344.82 152.756 345.165C153.131 345.506 153.581 345.676 154.108 345.676ZM164.436 347.193C163.538 347.189 162.771 346.953 162.135 346.483C161.499 346.013 161.012 345.33 160.675 344.432C160.338 343.534 160.169 342.453 160.169 341.188C160.169 339.926 160.338 338.848 160.675 337.955C161.016 337.061 161.504 336.379 162.141 335.909C162.781 335.439 163.546 335.205 164.436 335.205C165.326 335.205 166.089 335.441 166.726 335.915C167.362 336.384 167.849 337.066 168.186 337.96C168.527 338.85 168.697 339.926 168.697 341.188C168.697 342.456 168.529 343.54 168.192 344.438C167.855 345.331 167.368 346.015 166.732 346.489C166.095 346.958 165.33 347.193 164.436 347.193ZM164.436 345.676C165.224 345.676 165.839 345.292 166.283 344.523C166.73 343.754 166.953 342.642 166.953 341.188C166.953 340.222 166.851 339.405 166.646 338.739C166.446 338.068 166.156 337.561 165.777 337.216C165.402 336.867 164.955 336.693 164.436 336.693C163.652 336.693 163.036 337.08 162.589 337.852C162.143 338.625 161.917 339.737 161.913 341.188C161.913 342.157 162.014 342.977 162.214 343.648C162.419 344.314 162.709 344.82 163.084 345.165C163.459 345.506 163.91 345.676 164.436 345.676Z" fill="black"/>
<path d="M104.58 312.21V311.273H111.125V312.21H108.381V320H107.324V312.21H104.58ZM114.33 320.136C113.739 320.136 113.22 319.996 112.774 319.714C112.331 319.433 111.984 319.04 111.734 318.534C111.487 318.028 111.364 317.437 111.364 316.761C111.364 316.08 111.487 315.484 111.734 314.976C111.984 314.467 112.331 314.072 112.774 313.791C113.22 313.51 113.739 313.369 114.33 313.369C114.92 313.369 115.438 313.51 115.881 313.791C116.327 314.072 116.673 314.467 116.92 314.976C117.17 315.484 117.295 316.08 117.295 316.761C117.295 317.437 117.17 318.028 116.92 318.534C116.673 319.04 116.327 319.433 115.881 319.714C115.438 319.996 114.92 320.136 114.33 320.136ZM114.33 319.233C114.778 319.233 115.148 319.118 115.438 318.888C115.727 318.658 115.942 318.355 116.081 317.98C116.22 317.605 116.29 317.199 116.29 316.761C116.29 316.324 116.22 315.916 116.081 315.538C115.942 315.161 115.727 314.855 115.438 314.622C115.148 314.389 114.778 314.273 114.33 314.273C113.881 314.273 113.511 314.389 113.222 314.622C112.932 314.855 112.717 315.161 112.578 315.538C112.439 315.916 112.369 316.324 112.369 316.761C112.369 317.199 112.439 317.605 112.578 317.98C112.717 318.355 112.932 318.658 113.222 318.888C113.511 319.118 113.881 319.233 114.33 319.233ZM121.677 313.455V314.307H118.285V313.455H121.677ZM119.274 311.886H120.279V318.125C120.279 318.409 120.321 318.622 120.403 318.764C120.488 318.903 120.596 318.997 120.727 319.045C120.86 319.091 121.001 319.114 121.149 319.114C121.26 319.114 121.35 319.108 121.422 319.097C121.493 319.082 121.549 319.071 121.592 319.062L121.797 319.966C121.728 319.991 121.633 320.017 121.511 320.043C121.389 320.071 121.234 320.085 121.047 320.085C120.762 320.085 120.484 320.024 120.211 319.902C119.941 319.78 119.717 319.594 119.538 319.344C119.362 319.094 119.274 318.778 119.274 318.398V311.886ZM125.116 320.153C124.701 320.153 124.325 320.075 123.987 319.919C123.649 319.76 123.38 319.531 123.181 319.233C122.983 318.932 122.883 318.568 122.883 318.142C122.883 317.767 122.957 317.463 123.105 317.23C123.252 316.994 123.45 316.81 123.697 316.676C123.944 316.543 124.217 316.443 124.515 316.378C124.816 316.31 125.119 316.256 125.423 316.216C125.821 316.165 126.143 316.126 126.39 316.101C126.64 316.072 126.822 316.026 126.936 315.96C127.052 315.895 127.11 315.781 127.11 315.619V315.585C127.11 315.165 126.995 314.838 126.765 314.605C126.538 314.372 126.193 314.256 125.73 314.256C125.25 314.256 124.873 314.361 124.6 314.571C124.328 314.781 124.136 315.006 124.025 315.244L123.071 314.903C123.241 314.506 123.468 314.196 123.752 313.974C124.039 313.75 124.352 313.594 124.69 313.506C125.031 313.415 125.366 313.369 125.696 313.369C125.906 313.369 126.147 313.395 126.42 313.446C126.696 313.494 126.961 313.595 127.217 313.749C127.475 313.902 127.69 314.134 127.86 314.443C128.031 314.753 128.116 315.168 128.116 315.688V320H127.11V319.114H127.059C126.991 319.256 126.877 319.408 126.718 319.57C126.559 319.732 126.348 319.869 126.083 319.983C125.819 320.097 125.497 320.153 125.116 320.153ZM125.27 319.25C125.667 319.25 126.002 319.172 126.275 319.016C126.551 318.859 126.758 318.658 126.897 318.411C127.039 318.163 127.11 317.903 127.11 317.631V316.71C127.068 316.761 126.974 316.808 126.829 316.851C126.687 316.891 126.522 316.926 126.335 316.957C126.15 316.986 125.97 317.011 125.794 317.034C125.62 317.054 125.48 317.071 125.372 317.085C125.11 317.119 124.866 317.175 124.639 317.251C124.414 317.325 124.233 317.437 124.093 317.588C123.957 317.736 123.889 317.937 123.889 318.193C123.889 318.543 124.018 318.807 124.277 318.986C124.538 319.162 124.869 319.25 125.27 319.25ZM130.957 311.273V320H129.952V311.273H130.957ZM137.368 311.273V320H136.311V311.273H137.368ZM140.356 316.062V320H139.35V313.455H140.322V314.477H140.407C140.56 314.145 140.793 313.878 141.106 313.676C141.418 313.472 141.822 313.369 142.316 313.369C142.759 313.369 143.147 313.46 143.479 313.642C143.812 313.821 144.07 314.094 144.255 314.46C144.44 314.824 144.532 315.284 144.532 315.841V320H143.526V315.909C143.526 315.395 143.393 314.994 143.126 314.707C142.859 314.418 142.492 314.273 142.026 314.273C141.705 314.273 141.418 314.342 141.165 314.482C140.915 314.621 140.718 314.824 140.573 315.091C140.428 315.358 140.356 315.682 140.356 316.062ZM149.029 320.136C148.415 320.136 147.887 319.991 147.444 319.702C147 319.412 146.659 319.013 146.421 318.504C146.182 317.996 146.063 317.415 146.063 316.761C146.063 316.097 146.185 315.51 146.429 315.001C146.676 314.49 147.02 314.091 147.461 313.804C147.904 313.514 148.421 313.369 149.012 313.369C149.472 313.369 149.887 313.455 150.256 313.625C150.625 313.795 150.928 314.034 151.164 314.341C151.4 314.648 151.546 315.006 151.603 315.415H150.597C150.52 315.116 150.35 314.852 150.086 314.622C149.824 314.389 149.472 314.273 149.029 314.273C148.637 314.273 148.293 314.375 147.998 314.58C147.705 314.781 147.476 315.067 147.311 315.436C147.15 315.803 147.069 316.233 147.069 316.727C147.069 317.233 147.148 317.673 147.307 318.048C147.469 318.423 147.696 318.714 147.989 318.922C148.284 319.129 148.631 319.233 149.029 319.233C149.29 319.233 149.527 319.188 149.74 319.097C149.953 319.006 150.134 318.875 150.282 318.705C150.429 318.534 150.534 318.33 150.597 318.091H151.603C151.546 318.477 151.405 318.825 151.181 319.135C150.959 319.442 150.665 319.686 150.299 319.868C149.935 320.047 149.512 320.136 149.029 320.136ZM155.732 320.136C155.141 320.136 154.623 319.996 154.176 319.714C153.733 319.433 153.387 319.04 153.137 318.534C152.89 318.028 152.766 317.437 152.766 316.761C152.766 316.08 152.89 315.484 153.137 314.976C153.387 314.467 153.733 314.072 154.176 313.791C154.623 313.51 155.141 313.369 155.732 313.369C156.323 313.369 156.84 313.51 157.283 313.791C157.729 314.072 158.076 314.467 158.323 314.976C158.573 315.484 158.698 316.08 158.698 316.761C158.698 317.437 158.573 318.028 158.323 318.534C158.076 319.04 157.729 319.433 157.283 319.714C156.84 319.996 156.323 320.136 155.732 320.136ZM155.732 319.233C156.181 319.233 156.55 319.118 156.84 318.888C157.13 318.658 157.344 318.355 157.483 317.98C157.623 317.605 157.692 317.199 157.692 316.761C157.692 316.324 157.623 315.916 157.483 315.538C157.344 315.161 157.13 314.855 156.84 314.622C156.55 314.389 156.181 314.273 155.732 314.273C155.283 314.273 154.914 314.389 154.624 314.622C154.334 314.855 154.12 315.161 153.98 315.538C153.841 315.916 153.772 316.324 153.772 316.761C153.772 317.199 153.841 317.605 153.98 317.98C154.12 318.355 154.334 318.658 154.624 318.888C154.914 319.118 155.283 319.233 155.732 319.233ZM160.233 320V313.455H161.205V314.477H161.29C161.426 314.128 161.646 313.857 161.95 313.663C162.254 313.467 162.619 313.369 163.045 313.369C163.477 313.369 163.837 313.467 164.124 313.663C164.413 313.857 164.639 314.128 164.801 314.477H164.869C165.037 314.139 165.288 313.871 165.624 313.672C165.959 313.47 166.361 313.369 166.83 313.369C167.415 313.369 167.893 313.553 168.266 313.919C168.638 314.283 168.824 314.849 168.824 315.619V320H167.818V315.619C167.818 315.136 167.686 314.791 167.422 314.584C167.158 314.376 166.847 314.273 166.489 314.273C166.028 314.273 165.672 314.412 165.419 314.69C165.166 314.966 165.04 315.315 165.04 315.739V320H164.017V315.517C164.017 315.145 163.896 314.845 163.655 314.618C163.413 314.388 163.102 314.273 162.722 314.273C162.46 314.273 162.216 314.342 161.989 314.482C161.764 314.621 161.582 314.814 161.443 315.061C161.307 315.305 161.239 315.588 161.239 315.909V320H160.233ZM173.407 320.136C172.776 320.136 172.232 319.997 171.775 319.719C171.32 319.438 170.969 319.045 170.722 318.543C170.478 318.037 170.356 317.449 170.356 316.778C170.356 316.108 170.478 315.517 170.722 315.006C170.969 314.491 171.313 314.091 171.754 313.804C172.197 313.514 172.714 313.369 173.305 313.369C173.646 313.369 173.982 313.426 174.315 313.54C174.647 313.653 174.95 313.838 175.222 314.094C175.495 314.347 175.712 314.682 175.874 315.099C176.036 315.517 176.117 316.031 176.117 316.642V317.068H171.072V316.199H175.094C175.094 315.83 175.021 315.5 174.873 315.21C174.728 314.92 174.521 314.692 174.251 314.524C173.984 314.357 173.668 314.273 173.305 314.273C172.904 314.273 172.558 314.372 172.265 314.571C171.975 314.767 171.752 315.023 171.596 315.338C171.44 315.653 171.362 315.991 171.362 316.352V316.932C171.362 317.426 171.447 317.845 171.617 318.189C171.79 318.53 172.031 318.79 172.337 318.969C172.644 319.145 173.001 319.233 173.407 319.233C173.671 319.233 173.91 319.196 174.123 319.122C174.339 319.045 174.525 318.932 174.681 318.781C174.837 318.628 174.958 318.437 175.043 318.21L176.015 318.483C175.913 318.812 175.741 319.102 175.499 319.352C175.258 319.599 174.96 319.793 174.604 319.932C174.249 320.068 173.85 320.136 173.407 320.136Z" fill="#A9A7B6"/>
<path d="M213 347.667V339.333" stroke="#52BD94" stroke-width="1.66667" stroke-linecap="round" stroke-linejoin="round"/>
<path d="M208 347.667V334.333" stroke="#52BD94" stroke-width="1.66667" stroke-linecap="round" stroke-linejoin="round"/>
<path d="M203 347.667V342.667" stroke="#52BD94" stroke-width="1.66667" stroke-linecap="round" stroke-linejoin="round"/>
<path d="M18 145.733L22.1739 150L30 142" stroke="white" stroke-width="2"/>
<defs>
<clipPath id="clip0_0_24">
<rect x="73" y="13" width="410" height="402" rx="10" fill="white"/>
</clipPath>
<clipPath id="clip1_0_24">
<rect width="20" height="20" fill="white" transform="translate(409.424 436.248) rotate(15)"/>
</clipPath>
<clipPath id="clip2_0_24">
<rect width="20" height="20" fill="white" transform="translate(411.929 17.7524) rotate(15)"/>
</clipPath>
</defs>
</svg>
